<svg id="visual" viewBox="0 0 1920 1080" width="1920" height="1080" xmlns="http://www.w3.org/2000/svg" xmlns:xlink="http://www.w3.org/1999/xlink" version="1.1"><rect x="0" y="0" width="1920" height="1080" fill="#171717"></rect><defs><linearGradient id="grad1_0" x1="43.8%" y1="0%" x2="100%" y2="100%"><stop offset="14.444444444444446%" stop-color="#171717" stop-opacity="1"></stop><stop offset="85.55555555555554%" stop-color="#171717" stop-opacity="1"></stop></linearGradient></defs><defs><linearGradient id="grad2_0" x1="0%" y1="0%" x2="56.3%" y2="100%"><stop offset="14.444444444444446%" stop-color="#171717" stop-opacity="1"></stop><stop offset="85.55555555555554%" stop-color="#171717" stop-opacity="1"></stop></linearGradient></defs><g transform="translate(1920, 0)"><path d="M0 702C-40.4 628.9 -80.8 555.9 -117.3 513.8C-153.8 471.7 -186.4 460.7 -214.3 445.1C-242.3 429.5 -265.7 409.4 -333.6 418.3C-401.4 427.2 -513.8 465.2 -548.8 437.7C-583.9 410.2 -541.6 317.2 -535.2 257.7C-528.7 198.3 -558 172.4 -591.8 135.1C-625.5 97.7 -663.8 48.9 -702 0L0 0Z" fill="#FBAE3C"></path></g><g transform="translate(0, 1080)"><path d="M0 -702C39.7 -626.1 79.4 -550.3 117.5 -514.8C155.5 -479.2 191.9 -484 229.5 -476.6C267.1 -469.2 305.9 -449.6 345.4 -433.1C384.9 -416.6 425.2 -403.2 484.7 -386.6C544.3 -369.9 623 -350.1 632.5 -304.6C641.9 -259.1 582 -187.9 582 -132.8C582.1 -77.8 642 -38.9 702 0L0 0Z" fill="#FBAE3C"></path></g></svg>